<svg width="25" height="26" viewBox="0 0 25 26" fill="none" xmlns="http://www.w3.org/2000/svg">
<path fill-rule="evenodd" clip-rule="evenodd" d="M21.696 0.114537H3.30397C1.10132 0.114537 0 1.25991 0 3.55066V22.5639C0 24.7401 1.21145 26 3.19383 26H21.696C23.7885 26 25 24.7401 25 22.5639V3.43612C25 1.25991 23.7885 0 21.696 0V0.114537ZM19.7137 3.09251C21.3289 3.09251 22.1366 3.93245 22.1366 5.61234C22.1366 7.29222 21.3289 8.13216 19.7137 8.13216C18.0984 8.13216 17.2907 7.29222 17.2907 5.61234C17.2907 3.93245 18.0984 3.09251 19.7137 3.09251ZM12.5551 8.13216C15.1982 8.13216 17.4009 10.4229 17.4009 13.1718C17.4009 15.9207 15.1982 18.2115 12.5551 18.2115C9.9119 18.2115 7.70925 15.8062 7.81938 13.1718C7.81938 10.4229 10.022 8.2467 12.6652 8.2467L12.5551 8.13216ZM22.1366 21.6476C22.1366 22.9075 21.8062 23.2511 20.7048 23.2511H4.40529C3.30396 23.2511 2.97357 22.9075 2.97357 21.6476C2.97357 18.5551 2.97357 15.348 2.97357 12.141C2.97357 11.2247 3.19383 10.9956 3.96476 11.1101C5.06608 11.1101 5.17621 11.1101 4.95595 12.2555C4.51542 16.2643 7.15859 20.1586 11.0132 20.9604C14.978 21.7621 18.8326 19.2423 19.9339 15.348C20.2643 14.0881 20.3744 12.8282 20.1542 11.5683C20.1542 11.1101 20.1542 10.9956 20.5947 10.9956C22.3568 10.8811 22.3568 10.8811 22.3568 12.7137V21.533L22.1366 21.6476Z" fill="#FCFCFC"/>
</svg>
