<svg width="30" height="25" viewBox="0 0 30 25" fill="none" xmlns="http://www.w3.org/2000/svg">
<path fill-rule="evenodd" clip-rule="evenodd" d="M0 22.011C2.24719 22.1251 4.38202 21.7829 6.40449 20.8704C7.30337 20.4142 8.20225 19.9579 8.98876 19.2736C7.97753 19.2736 7.07865 19.0455 6.29213 18.5892C4.94382 17.9049 3.93258 16.7643 3.37079 15.2815C3.37079 15.2815 3.44569 15.1674 3.59551 14.9393C4.60674 14.9393 5.2809 14.9393 5.8427 14.8252C5.2809 14.5971 4.83146 14.5971 4.38202 14.2549C2.35955 13.1143 1.23596 11.2894 1.01124 8.89411C1.01124 8.66599 1.01124 8.55193 1.34831 8.66599C2.02247 9.12223 2.80899 9.23629 3.82022 9.35035C3.37079 9.00817 3.03371 8.66599 2.80899 8.43787C1.1236 6.61291 0.674158 3.64734 1.79775 1.36614C1.91011 1.02396 2.02247 1.02396 2.24719 1.36614C5.16854 4.67388 8.76405 6.72696 13.0337 7.52539C13.4831 7.52539 13.9326 7.52539 14.382 7.75351C14.7191 7.75351 14.7191 7.75351 14.7191 7.41133C14.2697 4.78794 15.5056 2.16456 17.7528 0.795836C20.1124 -0.572886 23.1461 -0.116646 25.0562 1.70832C25.2809 1.93644 25.5056 1.93644 25.7303 1.82238C26.8539 1.59426 27.9775 1.13802 28.9888 0.567716C28.9888 0.567716 29.1011 0.567715 29.2135 0.453655C28.764 1.93644 27.8652 3.07704 26.6292 3.87546C27.8652 3.7614 28.8764 3.41922 30 2.96298C30 3.07704 30 3.1911 29.8876 3.30516C29.2135 4.3317 28.3146 5.24418 27.3034 5.92854C27.0787 6.0426 27.0787 6.15666 27.0787 6.49885C27.0787 11.0613 25.7303 15.1674 22.809 18.8173C20.1124 22.011 16.6292 24.0641 12.4719 24.7485C8.08989 25.4328 3.93258 24.7485 0.112359 22.3532C0.112359 22.3532 0.11236 22.3532 0 22.3532V22.011Z" fill="white"/>
</svg>
