<svg width="128" height="87" viewBox="0 0 128 87" fill="none" xmlns="http://www.w3.org/2000/svg">
<path d="M30.7729 62.8619C21.3303 62.8619 13.9698 60.3159 8.69138 55.2237C3.41294 50.1315 0.773714 42.9908 0.773714 33.8015V0H21.5356V33.1869C21.5356 37.8693 22.386 41.2056 24.0868 43.1956C25.7877 45.1271 28.075 46.0929 30.9488 46.0929C33.8813 46.0929 36.1686 45.1271 37.8108 43.1956C39.5116 41.2056 40.362 37.8693 40.362 33.1869V0H60.772V33.8015C60.772 42.9908 58.1328 50.1315 52.8544 55.2237C47.5759 60.3159 40.2154 62.8619 30.7729 62.8619Z" fill="#F0F8FF"/>
<path d="M70.289 61.4572V0H99.9363C105.684 0 110.64 0.936491 114.804 2.80947C119.027 4.68245 122.282 7.37487 124.569 10.8867C126.856 14.34 128 18.4372 128 23.1781C128 27.9191 126.856 32.0163 124.569 35.4696C122.282 38.9229 119.027 41.6153 114.804 43.5468C110.64 45.4198 105.684 46.3563 99.9363 46.3563H81.8136L91.0509 37.4889V61.4572H70.289ZM91.0509 39.7716L81.8136 30.3774H98.6167C101.49 30.3774 103.602 29.7336 104.951 28.4459C106.358 27.1582 107.062 25.4023 107.062 23.1781C107.062 20.954 106.358 19.1981 104.951 17.9104C103.602 16.6227 101.49 15.9789 98.6167 15.9789H81.8136L91.0509 6.5847V39.7716Z" fill="#F0F8FF"/>
<path d="M0 86.6254V70.2368H8.77395C11.0417 70.2368 12.7152 70.6426 13.7943 71.4542C14.8735 72.2503 15.4131 73.2726 15.4131 74.5213C15.4131 75.3485 15.1785 76.0899 14.7093 76.7454C14.2557 77.3854 13.591 77.8926 12.7152 78.2672C11.8394 78.6418 10.7602 78.8291 9.47774 78.8291L9.94693 77.5648C11.2294 77.5648 12.332 77.7443 13.2548 78.1033C14.1931 78.4623 14.9126 78.9852 15.4131 79.672C15.9292 80.3431 16.1872 81.1547 16.1872 82.1068C16.1872 83.5272 15.5929 84.6354 14.4043 85.4314C13.2313 86.2274 11.5109 86.6254 9.24314 86.6254H0ZM5.44266 82.7624H8.77395C9.3839 82.7624 9.83745 82.6531 10.1346 82.4346C10.4474 82.2161 10.6038 81.8961 10.6038 81.4747C10.6038 81.0533 10.4474 80.7333 10.1346 80.5148C9.83745 80.2963 9.3839 80.187 8.77395 80.187H5.06731V76.5347H8.02323C8.64883 76.5347 9.10238 76.4333 9.3839 76.2303C9.68106 76.0118 9.82963 75.7075 9.82963 75.3173C9.82963 74.9115 9.68106 74.6071 9.3839 74.4042C9.10238 74.2013 8.64883 74.0998 8.02323 74.0998H5.44266V82.7624Z" fill="#F0F8FF"/>
<path d="M26.0037 87C23.4857 87 21.5229 86.321 20.1153 84.9631C18.7077 83.6052 18.0039 81.701 18.0039 79.2505V70.2368H23.5404V79.0866C23.5404 80.3353 23.7672 81.225 24.2207 81.7556C24.6743 82.2707 25.2842 82.5282 26.0506 82.5282C26.8326 82.5282 27.4425 82.2707 27.8804 81.7556C28.334 81.225 28.5608 80.3353 28.5608 79.0866V70.2368H34.0034V79.2505C34.0034 81.701 33.2996 83.6052 31.8921 84.9631C30.4845 86.321 28.5217 87 26.0037 87Z" fill="#F0F8FF"/>
<path d="M36.5413 86.6254V70.2368H44.4472C45.9799 70.2368 47.3015 70.4865 48.4119 70.986C49.538 71.4855 50.406 72.2034 51.016 73.1399C51.6259 74.0608 51.9309 75.1534 51.9309 76.4176C51.9309 77.6819 51.6259 78.7745 51.016 79.6954C50.406 80.6006 49.538 81.2952 48.4119 81.7791C47.3015 82.2629 45.9799 82.5048 44.4472 82.5048H39.6145L42.0778 80.2338V86.6254H36.5413ZM46.3709 86.6254L42.3359 80.6553H48.2008L52.2828 86.6254H46.3709ZM42.0778 80.8426L39.6145 78.3375H44.0953C44.8617 78.3375 45.4247 78.1658 45.7844 77.8224C46.1598 77.479 46.3475 77.0108 46.3475 76.4176C46.3475 75.8245 46.1598 75.3563 45.7844 75.0129C45.4247 74.6695 44.8617 74.4978 44.0953 74.4978H39.6145L42.0778 71.9927V80.8426Z" fill="#F0F8FF"/>
<path d="M62.5375 87C61.2081 87 59.9803 86.7971 58.8543 86.3913C57.7438 85.9698 56.7742 85.3767 55.9453 84.6119C55.132 83.8471 54.4986 82.9419 54.045 81.8961C53.5915 80.8504 53.3647 79.6954 53.3647 78.4311C53.3647 77.1668 53.5915 76.0118 54.045 74.9661C54.4986 73.9203 55.1398 73.0151 55.9687 72.2503C56.7976 71.4855 57.7751 70.9002 58.9012 70.4943C60.0429 70.0729 61.2941 69.8622 62.6548 69.8622C64.2813 69.8622 65.728 70.1354 66.9948 70.6816C68.2773 71.2279 69.333 72.0083 70.1619 73.0229L66.6195 76.1367C66.1033 75.5436 65.5403 75.0988 64.9303 74.8022C64.336 74.49 63.6713 74.334 62.9363 74.334C62.3263 74.334 61.7711 74.4276 61.2706 74.6149C60.7858 74.8022 60.3713 75.0753 60.0273 75.4343C59.6832 75.7933 59.4173 76.2225 59.2296 76.722C59.042 77.2215 58.9481 77.7912 58.9481 78.4311C58.9481 79.0398 59.042 79.6017 59.2296 80.1168C59.4173 80.6162 59.6832 81.0455 60.0273 81.4045C60.3713 81.7634 60.778 82.0444 61.2472 82.2473C61.732 82.4346 62.2716 82.5282 62.8659 82.5282C63.4915 82.5282 64.1014 82.4268 64.6958 82.2239C65.2901 82.0054 65.9235 81.6386 66.596 81.1235L69.6927 84.9163C68.6917 85.5874 67.55 86.1025 66.2676 86.4615C64.9851 86.8205 63.7417 87 62.5375 87ZM64.8834 84.2139V77.9863H69.6927V84.9163L64.8834 84.2139Z" fill="#F0F8FF"/>
<path d="M79.9107 87C77.3927 87 75.4299 86.321 74.0223 84.9631C72.6147 83.6052 71.9109 81.701 71.9109 79.2505V70.2368H77.4474V79.0866C77.4474 80.3353 77.6742 81.225 78.1277 81.7556C78.5813 82.2707 79.1912 82.5282 79.9576 82.5282C80.7396 82.5282 81.3495 82.2707 81.7875 81.7556C82.241 81.225 82.4678 80.3353 82.4678 79.0866V70.2368H87.9105V79.2505C87.9105 81.701 87.2067 83.6052 85.7991 84.9631C84.3915 86.321 82.4287 87 79.9107 87Z" fill="#F0F8FF"/>
<path d="M95.5156 76.324H102.835V80.3041H95.5156V76.324ZM95.891 82.458H104.102V86.6254H90.4483V70.2368H103.797V74.4042H95.891V82.458Z" fill="#F0F8FF"/>
<path d="M106.233 86.6254V70.2368H114.139C115.672 70.2368 116.993 70.4865 118.104 70.986C119.23 71.4855 120.098 72.2034 120.708 73.1399C121.318 74.0608 121.623 75.1534 121.623 76.4176C121.623 77.6819 121.318 78.7745 120.708 79.6954C120.098 80.6006 119.23 81.2952 118.104 81.7791C116.993 82.2629 115.672 82.5048 114.139 82.5048H109.306L111.77 80.2338V86.6254H106.233ZM116.063 86.6254L112.028 80.6553H117.893L121.975 86.6254H116.063ZM111.77 80.8426L109.306 78.3375H113.787C114.554 78.3375 115.117 78.1658 115.476 77.8224C115.852 77.479 116.039 77.0108 116.039 76.4176C116.039 75.8245 115.852 75.3563 115.476 75.0129C115.117 74.6695 114.554 74.4978 113.787 74.4978H109.306L111.77 71.9927V80.8426Z" fill="#F0F8FF"/>
</svg>
