<svg width="30" height="30" viewBox="0 0 30 30" fill="none" xmlns="http://www.w3.org/2000/svg">
<path fill-rule="evenodd" clip-rule="evenodd" d="M28.6039 11.0734C27.038 4.51975 21.4453 0 14.7342 0C13.8394 0 12.8327 3.57795e-07 12.0497 0.338982C2.54228 2.25988 -2.26738 12.7683 2.31857 21.3558C2.43042 21.5818 2.43042 21.8078 2.43042 22.0338C1.75931 24.1807 1.20005 26.5536 0.528931 28.7004C0.528931 28.7004 0.603499 28.8134 0.752636 29.0394C3.10154 28.3615 5.33859 27.7965 7.68749 27.2315C7.9112 27.2315 8.02305 27.2315 8.24675 27.2315C11.1549 28.7004 14.2868 29.1524 17.6424 28.5874C25.472 27.1185 30.6173 18.983 28.7158 11.1864L28.6039 11.0734ZM16.7475 26.1016C16.0764 26.2146 15.4053 26.3276 15.0698 26.2146C12.4972 26.2146 10.4838 25.6496 8.69416 24.5197C8.47046 24.4067 8.24675 24.2937 8.02305 24.4067C6.68082 24.7457 5.45044 25.0846 4.22006 25.4236C3.99636 25.4236 3.88451 25.4236 3.99636 25.1976C4.33192 23.9547 4.66747 22.8248 5.00303 21.5818C5.00303 21.2428 5.00303 21.0169 4.89118 20.6779C2.31857 16.3841 2.43042 11.1864 5.33859 7.23161C8.35861 3.16383 12.4971 1.46892 17.4187 2.48586C22.2283 3.50281 25.3602 6.66664 26.4787 11.5254C28.0446 18.192 23.5705 24.8586 16.9712 25.8756L16.7475 26.1016Z" fill="white"/>
<path fill-rule="evenodd" clip-rule="evenodd" d="M18.4254 21.1298C18.4254 21.1298 17.4187 21.1298 16.9713 20.9039C13.7275 19.9999 11.2668 17.966 9.25345 15.1412C8.47048 14.1242 7.79936 12.9943 7.57566 11.7514C7.2401 10.2824 7.68751 8.92651 8.80604 7.90956C9.14159 7.57058 10.2601 7.34459 10.7075 7.57058C10.8194 7.68358 10.9312 7.79657 11.0431 8.02256C11.4905 9.0395 11.8261 9.94345 12.2735 10.9604C12.2735 11.1864 12.2735 11.4124 12.2735 11.5254C12.0498 11.9773 11.7142 12.3163 11.3786 12.6553C11.1549 12.8813 11.1549 13.2203 11.3786 13.4463C12.4972 15.3672 14.175 16.8361 16.3002 17.627C16.6357 17.74 16.8594 17.627 17.0831 17.514C17.4187 17.0621 17.7542 16.6101 18.2016 16.1581C18.4254 15.8191 18.6491 15.8191 18.9846 15.9321C19.6557 16.2711 20.3268 16.6101 20.998 16.9491C21.2217 16.9491 21.3335 17.0621 21.4454 17.1751C22.1165 17.514 22.1165 17.627 22.1165 18.305C22.1165 19.7739 20.8861 20.5649 19.5439 20.9039C19.2083 20.9039 18.8728 20.9039 18.6491 20.9039L18.4254 21.1298Z" fill="white"/>
</svg>
