<svg width="49" height="38" viewBox="0 0 49 38" fill="none" xmlns="http://www.w3.org/2000/svg">
<path d="M11.5363 24.2228C7.90511 24.2228 5.07461 23.2417 3.04476 21.2795C1.01492 19.3173 0 16.5658 0 13.0248V0H7.98405V12.788C7.98405 14.5923 8.31108 15.8779 8.96514 16.6447C9.6192 17.389 10.4988 17.7611 11.6039 17.7611C12.7316 17.7611 13.6112 17.389 14.2427 16.6447C14.8968 15.8779 15.2238 14.5923 15.2238 12.788V0H23.0725V13.0248C23.0725 16.5658 22.0576 19.3173 20.0278 21.2795C17.9979 23.2417 15.1674 24.2228 11.5363 24.2228Z" fill="white"/>
<path d="M26.7323 23.6815V0H38.1333C40.3436 0 42.2494 0.360861 43.8507 1.08258C45.4745 1.8043 46.7263 2.84178 47.6059 4.19501C48.4855 5.52568 48.9253 7.10445 48.9253 8.93131C48.9253 10.7582 48.4855 12.3369 47.6059 13.6676C46.7263 14.9983 45.4745 16.0358 43.8507 16.78C42.2494 17.5018 40.3436 17.8626 38.1333 17.8626H31.1642L34.7164 14.4457V23.6815H26.7323ZM34.7164 15.3253L31.1642 11.7054H37.6258C38.731 11.7054 39.5429 11.4573 40.0616 10.9611C40.6029 10.465 40.8736 9.78835 40.8736 8.93131C40.8736 8.07426 40.6029 7.39765 40.0616 6.90146C39.5429 6.40528 38.731 6.15719 37.6258 6.15719H31.1642L34.7164 2.5373V15.3253Z" fill="white"/>
<path d="M0.774126 37.059V25.9148H6.72833C8.2673 25.9148 9.40295 26.1907 10.1353 26.7426C10.8676 27.2839 11.2338 27.9791 11.2338 28.8282C11.2338 29.3907 11.0746 29.8948 10.7562 30.3406C10.4484 30.7758 9.99731 31.1207 9.40295 31.3754C8.80859 31.6302 8.07625 31.7575 7.20594 31.7575L7.52435 30.8978C8.39466 30.8978 9.14291 31.0199 9.76911 31.264C10.4059 31.5081 10.8942 31.8637 11.2338 32.3307C11.584 32.787 11.7592 33.3389 11.7592 33.9864C11.7592 34.9522 11.3558 35.7058 10.5492 36.2471C9.75319 36.7883 8.5857 37.059 7.04674 37.059H0.774126ZM4.46764 34.4321H6.72833C7.14226 34.4321 7.45005 34.3578 7.65171 34.2093C7.86398 34.0607 7.97012 33.8431 7.97012 33.5565C7.97012 33.27 7.86398 33.0524 7.65171 32.9038C7.45005 32.7552 7.14226 32.6809 6.72833 32.6809H4.21292V30.1973H6.21888C6.64342 30.1973 6.95121 30.1283 7.14226 29.9904C7.34392 29.8418 7.44474 29.6348 7.44474 29.3695C7.44474 29.0935 7.34392 28.8866 7.14226 28.7486C6.95121 28.6106 6.64342 28.5416 6.21888 28.5416H4.46764V34.4321Z" fill="white"/>
<path d="M18.4208 37.3137C16.712 37.3137 15.38 36.852 14.4248 35.9287C13.4696 35.0053 12.992 33.7104 12.992 32.0441V25.9148H16.7492V31.9326C16.7492 32.7817 16.9031 33.3867 17.2109 33.7476C17.5187 34.0978 17.9326 34.2729 18.4527 34.2729C18.9833 34.2729 19.3973 34.0978 19.6944 33.7476C20.0022 33.3867 20.1561 32.7817 20.1561 31.9326V25.9148H23.8497V32.0441C23.8497 33.7104 23.372 35.0053 22.4168 35.9287C21.4616 36.852 20.1296 37.3137 18.4208 37.3137Z" fill="white"/>
<path d="M25.5719 37.059V25.9148H30.9371C31.9772 25.9148 32.874 26.0846 33.6276 26.4242C34.3918 26.7638 34.9808 27.2521 35.3948 27.8889C35.8087 28.5151 36.0156 29.258 36.0156 30.1177C36.0156 30.9774 35.8087 31.7204 35.3948 32.3466C34.9808 32.9622 34.3918 33.4345 33.6276 33.7635C32.874 34.0925 31.9772 34.257 30.9371 34.257H27.6575L29.3291 32.7127V37.059H25.5719ZM32.2425 37.059L29.5042 32.9993H33.4843L36.2545 37.059H32.2425ZM29.3291 33.1267L27.6575 31.4232H30.6983C31.2183 31.4232 31.6004 31.3064 31.8445 31.073C32.0992 30.8395 32.2266 30.521 32.2266 30.1177C32.2266 29.7144 32.0992 29.396 31.8445 29.1625C31.6004 28.929 31.2183 28.8123 30.6983 28.8123H27.6575L29.3291 27.1088V33.1267Z" fill="white"/>
<path d="M43.2135 37.3137C42.3114 37.3137 41.4782 37.1757 40.714 36.8998C39.9604 36.6132 39.3024 36.2099 38.7399 35.6898C38.188 35.1698 37.7581 34.5542 37.4503 33.8431C37.1425 33.132 36.9887 32.3466 36.9887 31.4869C36.9887 30.6272 37.1425 29.8418 37.4503 29.1307C37.7581 28.4196 38.1933 27.804 38.7558 27.2839C39.3183 26.7638 39.9817 26.3658 40.7458 26.0899C41.5206 25.8033 42.3697 25.66 43.2931 25.66C44.3969 25.66 45.3787 25.8458 46.2384 26.2172C47.1087 26.5887 47.8251 27.1194 48.3876 27.8093L45.9836 29.9267C45.6334 29.5234 45.2513 29.2209 44.8374 29.0192C44.4341 28.807 43.983 28.7008 43.4841 28.7008C43.0702 28.7008 42.6934 28.7645 42.3538 28.8919C42.0248 29.0192 41.7435 29.205 41.51 29.4491C41.2765 29.6932 41.0961 29.9851 40.9687 30.3247C40.8414 30.6643 40.7777 31.0517 40.7777 31.4869C40.7777 31.9008 40.8414 32.2829 40.9687 32.6331C41.0961 32.9728 41.2765 33.2646 41.51 33.5088C41.7435 33.7529 42.0195 33.9439 42.3379 34.0819C42.6669 34.2093 43.0331 34.2729 43.4364 34.2729C43.8609 34.2729 44.2749 34.2039 44.6782 34.066C45.0815 33.9174 45.5113 33.668 45.9677 33.3177L48.0692 35.8968C47.3899 36.3532 46.6151 36.7034 45.7448 36.9476C44.8745 37.1917 44.0307 37.3137 43.2135 37.3137ZM44.8055 35.4192V31.1844H48.0692V35.8968L44.8055 35.4192Z" fill="white"/>
</svg>
