<svg width="149" height="126" viewBox="0 0 149 126" fill="none" xmlns="http://www.w3.org/2000/svg">
<path d="M33.32 83.36C24.1967 83.36 17.085 80.895 11.985 75.965C6.885 71.035 4.335 64.1217 4.335 55.225V22.5H24.395V54.63C24.395 59.1633 25.2167 62.3933 26.86 64.32C28.5033 66.19 30.7133 67.125 33.49 67.125C36.3233 67.125 38.5333 66.19 40.12 64.32C41.7633 62.3933 42.585 59.1633 42.585 54.63V22.5H62.305V55.225C62.305 64.1217 59.755 71.035 54.655 75.965C49.555 80.895 42.4433 83.36 33.32 83.36ZM71.5003 82V22.5H100.145C105.699 22.5 110.487 23.4067 114.51 25.22C118.59 27.0333 121.735 29.64 123.945 33.04C126.155 36.3833 127.26 40.35 127.26 44.94C127.26 49.53 126.155 53.4967 123.945 56.84C121.735 60.1833 118.59 62.79 114.51 64.66C110.487 66.4733 105.699 67.38 100.145 67.38H82.6353L91.5603 58.795V82H71.5003ZM91.5603 61.005L82.6353 51.91H98.8703C101.647 51.91 103.687 51.2867 104.99 50.04C106.35 48.7933 107.03 47.0933 107.03 44.94C107.03 42.7867 106.35 41.0867 104.99 39.84C103.687 38.5933 101.647 37.97 98.8703 37.97H82.6353L91.5603 28.875V61.005Z" fill="#367E18"/>
<path d="M6.28 116V88H21.24C25.1067 88 27.96 88.6933 29.8 90.08C31.64 91.44 32.56 93.1867 32.56 95.32C32.56 96.7333 32.16 98 31.36 99.12C30.5867 100.213 29.4533 101.08 27.96 101.72C26.4667 102.36 24.6267 102.68 22.44 102.68L23.24 100.52C25.4267 100.52 27.3067 100.827 28.88 101.44C30.48 102.053 31.7067 102.947 32.56 104.12C33.44 105.267 33.88 106.653 33.88 108.28C33.88 110.707 32.8667 112.6 30.84 113.96C28.84 115.32 25.9067 116 22.04 116H6.28ZM15.56 109.4H21.24C22.28 109.4 23.0533 109.213 23.56 108.84C24.0933 108.467 24.36 107.92 24.36 107.2C24.36 106.48 24.0933 105.933 23.56 105.56C23.0533 105.187 22.28 105 21.24 105H14.92V98.76H19.96C21.0267 98.76 21.8 98.5867 22.28 98.24C22.7867 97.8667 23.04 97.3467 23.04 96.68C23.04 95.9867 22.7867 95.4667 22.28 95.12C21.8 94.7733 21.0267 94.6 19.96 94.6H15.56V109.4ZM50.6175 116.64C46.3242 116.64 42.9775 115.48 40.5775 113.16C38.1775 110.84 36.9775 107.587 36.9775 103.4V88H46.4175V103.12C46.4175 105.253 46.8042 106.773 47.5775 107.68C48.3508 108.56 49.3908 109 50.6975 109C52.0308 109 53.0708 108.56 53.8175 107.68C54.5908 106.773 54.9775 105.253 54.9775 103.12V88H64.2575V103.4C64.2575 107.587 63.0575 110.84 60.6575 113.16C58.2575 115.48 54.9108 116.64 50.6175 116.64ZM68.5847 116V88H82.0647C84.678 88 86.9314 88.4267 88.8247 89.28C90.7447 90.1333 92.2247 91.36 93.2647 92.96C94.3047 94.5333 94.8247 96.4 94.8247 98.56C94.8247 100.72 94.3047 102.587 93.2647 104.16C92.2247 105.707 90.7447 106.893 88.8247 107.72C86.9314 108.547 84.678 108.96 82.0647 108.96H73.8247L78.0247 105.08V116H68.5847ZM85.3447 116L78.4647 105.8H88.4647L95.4247 116H85.3447ZM78.0247 106.12L73.8247 101.84H81.4647C82.7714 101.84 83.7314 101.547 84.3447 100.96C84.9847 100.373 85.3047 99.5733 85.3047 98.56C85.3047 97.5467 84.9847 96.7467 84.3447 96.16C83.7314 95.5733 82.7714 95.28 81.4647 95.28H73.8247L78.0247 91V106.12ZM112.909 116.64C110.643 116.64 108.549 116.293 106.629 115.6C104.736 114.88 103.083 113.867 101.669 112.56C100.283 111.253 99.2027 109.707 98.4294 107.92C97.656 106.133 97.2694 104.16 97.2694 102C97.2694 99.84 97.656 97.8667 98.4294 96.08C99.2027 94.2933 100.296 92.7467 101.709 91.44C103.123 90.1333 104.789 89.1333 106.709 88.44C108.656 87.72 110.789 87.36 113.109 87.36C115.883 87.36 118.349 87.8267 120.509 88.76C122.696 89.6933 124.496 91.0267 125.909 92.76L119.869 98.08C118.989 97.0667 118.029 96.3067 116.989 95.8C115.976 95.2667 114.843 95 113.589 95C112.549 95 111.603 95.16 110.749 95.48C109.923 95.8 109.216 96.2667 108.629 96.88C108.043 97.4933 107.589 98.2267 107.269 99.08C106.949 99.9333 106.789 100.907 106.789 102C106.789 103.04 106.949 104 107.269 104.88C107.589 105.733 108.043 106.467 108.629 107.08C109.216 107.693 109.909 108.173 110.709 108.52C111.536 108.84 112.456 109 113.469 109C114.536 109 115.576 108.827 116.589 108.48C117.603 108.107 118.683 107.48 119.829 106.6L125.109 113.08C123.403 114.227 121.456 115.107 119.269 115.72C117.083 116.333 114.963 116.64 112.909 116.64ZM116.909 111.88V101.24H125.109V113.08L116.909 111.88Z" fill="#367E18"/>
</svg>
